<svg width="108" height="108" viewBox="0 0 108 108" fill="none" xmlns="http://www.w3.org/2000/svg">
<g clip-path="url(#clip0_82_500)">
<path fill-rule="evenodd" clip-rule="evenodd" d="M30.24 92.214C37.134 96.516 45.279 99 54 99C62.703 99 70.8345 96.525 77.724 92.2365L83.304 99.3555C74.862 104.823 64.8 108 54 108C43.1865 108 33.111 104.814 24.66 99.333L30.24 92.214ZM59.0625 87.75L56.3895 89.5095C56.043 89.82 55.5345 90 55.008 90H52.9965C52.4655 90 51.957 89.82 51.6105 89.5095L48.9375 87.75H59.0625ZM108 85.5H81C81 80.5275 85.0275 76.5 90 76.5H99C101.385 76.5 103.675 77.4495 105.363 79.137C107.05 80.8245 108 83.1105 108 85.5ZM27 85.5H0C0 80.5275 4.0275 76.5 9 76.5H18C20.385 76.5 22.6755 77.4495 24.363 79.137C26.0505 80.8245 27 83.1105 27 85.5ZM59.157 83.25C59.778 83.25 60.282 83.754 60.282 84.375C60.282 84.996 59.778 85.5 59.157 85.5H48.9015C48.2805 85.5 47.7765 84.996 47.7765 84.375C47.7765 83.754 48.2805 83.25 48.9015 83.25H59.157ZM60.2685 81C60.2685 71.991 67.5 68.265 67.5 60.237C67.5 51.867 60.7455 47.25 53.9955 47.25C47.2455 47.25 40.5 51.858 40.5 60.237C40.5 68.265 47.7315 72.1125 47.7315 81H60.2685ZM94.5 54C100.089 54 104.625 58.536 104.625 64.125C104.625 69.714 100.089 74.25 94.5 74.25C88.911 74.25 84.375 69.714 84.375 64.125C84.375 58.536 88.911 54 94.5 54ZM13.5 54C19.089 54 23.625 58.536 23.625 64.125C23.625 69.714 19.089 74.25 13.5 74.25C7.911 74.25 3.375 69.714 3.375 64.125C3.375 58.536 7.911 54 13.5 54ZM71.415 64.7325L77.4855 67.4865L75.627 71.586L69.786 68.94C70.461 67.59 71.0235 66.204 71.415 64.7325ZM36.5895 64.7325C36.981 66.2265 37.5255 67.572 38.2095 68.94L32.3775 71.586L30.5145 67.4865L36.5895 64.7325ZM78.75 56.25V60.75H71.9955C72.0405 59.2425 71.9055 57.726 71.577 56.25H78.75ZM36.423 56.25C36.099 57.7215 35.964 59.2335 36.009 60.7365V60.75H29.25V56.25H36.423ZM67.599 48.537L73.188 44.568L75.7935 48.24L70.1595 52.236C69.5025 50.9265 68.652 49.689 67.599 48.537ZM40.401 48.5325C39.366 49.6665 38.52 50.895 37.8405 52.236L32.211 48.24L34.812 44.568L40.401 48.5325ZM60.3585 43.8255L63.342 37.773L67.3785 39.7665L64.3905 45.819C63.1395 44.991 61.7805 44.325 60.3585 43.8255ZM47.6415 43.821C46.224 44.316 44.8605 44.982 43.605 45.81L40.6215 39.7665L44.658 37.773L47.6415 43.821ZM36 3.078V12.7485C22.779 18.531 12.8655 30.4875 9.909 44.9595L0.756 44.946C4.05 25.47 17.7885 9.522 36 3.078ZM72 3.078C90.2115 9.522 103.95 25.47 107.244 44.946L98.091 44.9595C95.1345 30.4875 85.221 18.531 72 12.7485V3.078ZM56.25 42.885C54.747 42.7095 53.307 42.7005 51.75 42.8805V36H56.25V42.885ZM67.5 31.5H40.5C40.5 26.5275 44.5275 22.5 49.5 22.5H58.5C60.885 22.5 63.1755 23.4495 64.863 25.137C66.5505 26.8245 67.5 29.115 67.5 31.5ZM54 0C59.589 0 64.125 4.536 64.125 10.125C64.125 15.714 59.589 20.25 54 20.25C48.411 20.25 43.875 15.714 43.875 10.125C43.875 4.536 48.411 0 54 0Z" fill="#5A189A"/>
</g>
<defs>
<clipPath id="clip0_82_500">
<rect width="108" height="108" fill="white"/>
</clipPath>
</defs>
</svg>
