<svg width="108" height="108" viewBox="0 0 108 108" fill="none" xmlns="http://www.w3.org/2000/svg">
<g clip-path="url(#clip0_82_505)">
<path fill-rule="evenodd" clip-rule="evenodd" d="M92.808 101.133L85.5 97.2225L78.1875 101.133L79.6455 92.9745L73.6695 87.228L81.882 86.094L85.5 78.633L89.118 86.094L97.3305 87.228L91.35 92.9745L92.808 101.133ZM61.308 101.133L54 97.2225L46.6875 101.133L48.15 92.9745L42.1695 87.228L50.382 86.094L54 78.633L57.618 86.094L65.8305 87.228L59.85 92.9745L61.308 101.133ZM29.808 101.133L22.5 97.2225L15.1875 101.133L16.65 92.9745L10.6695 87.228L18.882 86.094L22.5 78.633L26.118 86.094L34.3305 87.228L28.35 92.9745L29.808 101.133ZM103.5 71.883H4.5C2.016 71.883 0 73.8945 0 76.383V103.383C0 105.871 2.016 107.883 4.5 107.883H103.5C105.989 107.883 108 105.871 108 103.383V76.383C108 73.8945 105.989 71.883 103.5 71.883ZM0.009 67.383H22.5C22.536 61.92 22.4955 57.0825 22.5 53.8245C22.5225 35.856 30.3705 39.8025 30.3705 23.841C30.3705 17.0595 25.947 13.383 20.2545 13.383C11.844 13.383 5.994 21.4245 13.959 36.4635C16.5735 41.409 11.169 42.579 5.364 43.92C0.333 45.081 0 48.6315 0 52.8885L0.009 67.383ZM102.636 43.92C96.831 42.579 91.4265 41.409 94.041 36.4635C102.006 21.4245 96.156 13.383 87.7455 13.383C82.053 13.383 77.6295 17.0595 77.6295 23.841C77.6295 38.799 85.365 36.009 85.5 53.883C85.536 58.257 85.4595 59.7825 85.5 67.383H107.991L108 52.8885C108 48.6315 107.667 45.081 102.636 43.92ZM80.9865 67.383H27.009L27 53.316C27 47.655 27.45 42.147 34.146 40.599C41.724 38.8485 49.194 37.287 45.5985 30.6585C34.9515 11.0205 42.5655 -0.117004 53.9955 -0.117004C65.205 -0.117004 73.0125 10.6065 62.3925 30.6585C58.905 37.2465 66.1095 38.8125 73.845 40.599C80.55 42.147 80.9955 47.6595 80.9955 53.3295L80.9865 67.383Z" fill="#5A189A"/>
</g>
<defs>
<clipPath id="clip0_82_505">
<rect width="108" height="108" fill="white"/>
</clipPath>
</defs>
</svg>
