<svg width="35" height="27" viewBox="0 0 35 27" fill="none" xmlns="http://www.w3.org/2000/svg">
<path d="M33.7768 0C34.496 0 35 0.521225 35 1.10406C35 1.51705 34.7463 1.96167 34.1302 2.27307C31.0013 3.85173 27.3787 9.31044 27.3787 12.6776C32.6567 12.5244 34.9492 16.9773 34.9492 19.7682C34.9492 23.1104 31.9077 26.6441 27.4102 26.6441C21.7402 26.6441 18.9578 22.4027 18.9578 17.8066C18.9578 7.84834 30.9173 0 33.7768 0ZM14.819 0C15.5365 0 16.0422 0.521225 16.0422 1.10406C16.0422 1.51705 15.7885 1.96167 15.1725 2.27307C12.0435 3.85173 8.421 9.31044 8.421 12.6776C13.699 12.5244 15.9915 16.9773 15.9915 19.7682C15.9915 23.1104 12.9482 26.6441 8.4525 26.6441C2.78075 26.6441 0 22.4027 0 17.8066C0 7.84834 11.9578 0 14.819 0Z" fill="#3C096C"/>
</svg>
