<svg width="108" height="108" viewBox="0 0 108 108" fill="none" xmlns="http://www.w3.org/2000/svg">
<g clip-path="url(#clip0_82_512)">
<path fill-rule="evenodd" clip-rule="evenodd" d="M14.355 89.9505L4.5 91.314L11.673 98.208L9.9225 108L18.693 103.307L27.468 108L25.7175 98.208L32.8905 91.314L23.0355 89.9505L18.693 81L14.355 89.9505ZM50.355 89.9505L40.5 91.314L47.673 98.208L45.9225 108L54.693 103.307L63.468 108L61.7175 98.208L68.8905 91.314L59.0355 89.9505L54.693 81L50.355 89.9505ZM84.9645 89.9505L75.1095 91.314L82.2825 98.208L80.532 108L89.3025 103.307L98.0775 108L96.327 98.208L103.5 91.314L93.645 89.9505L89.3025 81L84.9645 89.9505ZM84.384 57.681C73.422 55.152 60.957 52.9335 65.898 43.6005C80.937 15.192 69.885 0 54 0C37.8045 0 27.018 15.777 42.102 43.6005C47.1915 52.9875 34.3395 55.206 23.6115 57.681C13.8195 59.94 13.4505 64.8045 13.482 73.314L13.5 76.5H94.5L94.5135 73.413C94.5495 64.845 94.2165 59.949 84.384 57.681Z" fill="#5A189A"/>
</g>
<defs>
<clipPath id="clip0_82_512">
<rect width="108" height="108" fill="white"/>
</clipPath>
</defs>
</svg>
