<svg width="108" height="108" viewBox="0 0 108 108" fill="none" xmlns="http://www.w3.org/2000/svg">
<path d="M54 63C63.9225 63 72 71.073 72 81C72 90.927 63.9225 99 54 99C44.0685 99 36 90.927 36 81C36 71.073 44.0685 63 54 63ZM54 54C39.087 54 27 66.0915 27 81C27 95.9085 39.087 108 54 108C68.913 108 81 95.9085 81 81C81 66.0915 68.913 54 54 54ZM59.562 83.034L65.25 77.571L57.438 76.4955L54 69.399L50.562 76.4955L42.75 77.571L48.438 83.034L47.0475 90.7965L54 87.0795L60.9435 90.801L59.562 83.034ZM82.107 0L68.3775 13.5H40.5L25.6815 0H82.107ZM86.5215 1.5255L56.799 45.1395C61.803 45.5265 66.5235 46.926 70.7535 49.158L94.5 13.5L86.5215 1.5255ZM21.3795 1.683L13.5 13.5L37.053 49.257C41.256 47.0025 45.9585 45.576 50.949 45.153L21.3795 1.683Z" fill="#5A189A"/>
</svg>
